<svg width="90" height="90" viewBox="0 0 90 90" fill="none" xmlns="http://www.w3.org/2000/svg">
<path d="M39.4875 40.128C39.1125 38.9388 38.775 37.7879 38.4 36.5987C38.025 35.4095 37.6875 34.297 37.3875 33.1845C37.0875 32.1103 36.825 31.1129 36.5625 30.1922H36.4875C36.15 31.8418 35.7375 33.4914 35.2125 35.1409C34.65 36.9823 34.0875 38.9004 33.4875 40.8185C32.9625 42.775 32.4 44.578 31.8375 46.1892H41.3625C41.1375 45.3798 40.8375 44.4246 40.5 43.4233C40.1625 42.3914 39.825 41.2789 39.4875 40.128V40.128ZM74.0625 0.116379H15.9375C7.125 0.116379 0 7.40517 0 16.4203V73.5797C0 82.5948 7.125 89.8836 15.9375 89.8836H74.0625C82.875 89.8836 90 82.5948 90 73.5797V16.4203C90 7.40517 82.875 0.116379 74.0625 0.116379ZM55.125 63.5289H47.2838C47.025 63.5672 46.7625 63.3754 46.6875 63.1069L43.6125 53.9767H29.6625L26.8125 62.9918C26.7375 63.3371 26.4375 63.5672 26.1 63.5327H19.05C18.6375 63.5327 18.525 63.2987 18.6375 62.8422L30.7125 27.2767C30.825 26.8931 30.9375 26.4711 31.0875 26.0108C31.2375 25.2052 31.3125 24.3612 31.3125 23.5172C31.275 23.3254 31.425 23.1336 31.6125 23.0953H41.325C41.625 23.0953 41.775 23.2103 41.8125 23.4022L55.5 62.9151C55.6125 63.3332 55.5 63.5289 55.125 63.5289V63.5289ZM67.875 62.9534C67.875 63.3754 67.7288 63.5672 67.3913 63.5672H60.0375C59.6625 63.5672 59.475 63.3332 59.475 62.9534V33.4146C59.475 33.031 59.6288 32.8776 59.9663 32.8776H67.3913C67.7288 32.8776 67.875 33.0694 67.875 33.4146V62.9534V62.9534ZM67.0913 28.3125C66.6484 28.7726 66.1144 29.1305 65.5252 29.3621C64.9359 29.5936 64.3051 29.6936 63.675 29.6552C62.4375 29.6935 61.2375 29.1948 60.3338 28.3125C59.4746 27.3515 59.017 26.0848 59.0587 24.7832C59.0212 23.4789 59.5087 22.2513 60.405 21.369C61.3125 20.4866 62.5125 20.0263 63.75 20.0263C65.2163 20.0263 66.3337 20.4866 67.1625 21.369C67.9875 22.2897 68.4375 23.5172 68.4 24.7832C68.4375 26.0875 67.9875 27.3534 67.0913 28.3125V28.3125Z" fill="white"/>
</svg>
