<svg width="60" height="90" viewBox="0 0 60 90" fill="none" xmlns="http://www.w3.org/2000/svg">
<g clip-path="url(#clip0_409_1189)">
<path d="M14.6424 0H29.2259V29.1674H14.6426C-4.58967 28.4156 -4.78391 0.789609 14.6424 0ZM14.6424 59.5823H29.2259V30.4149H14.6426C-4.78373 31.2045 -4.58949 58.8305 14.6426 59.5823H14.6424ZM45.0573 0H30.4734V29.1674H45.0573C64.5482 28.1243 64.3053 0.595371 45.0573 0ZM29.2259 75.4137V60.8298H14.6426C2.74181 60.8298 -4.78373 74.7826 3.49293 84.8043C11.3841 94.7375 29.2261 89.7852 29.2261 75.4137H29.2259ZM59.6707 44.9986C59.6707 33.7908 47.4542 26.7481 37.7341 32.352C28.0139 37.9559 28.0137 52.0414 37.7341 57.6453C47.4544 63.2493 59.6707 56.2064 59.6707 44.9986Z" fill="white"/>
</g>
<defs>
<clipPath id="clip0_409_1189">
<rect width="59.7656" height="90" fill="white"/>
</clipPath>
</defs>
</svg>
