<svg width="90" height="90" viewBox="0 0 90 90" fill="none" xmlns="http://www.w3.org/2000/svg">
<path d="M80.3571 0H9.64286C4.3192 0 0 4.3192 0 9.64286V80.3571C0 85.6808 4.3192 90 9.64286 90H80.3571C85.6808 90 90 85.6808 90 80.3571V9.64286C90 4.3192 85.6808 0 80.3571 0ZM55.7076 77.0826C54.0201 77.3839 53.3973 76.3393 53.3973 75.4754C53.3973 74.3906 53.4375 68.846 53.4375 64.3661C53.4375 61.2321 52.3929 59.2433 51.1674 58.1987C58.6004 57.375 66.4353 56.3504 66.4353 43.5134C66.4353 39.8571 65.1295 38.029 63 35.6786C63.3415 34.8147 64.4866 31.2589 62.6585 26.6384C59.8661 25.7746 53.4777 30.2344 53.4777 30.2344C50.8259 29.4911 47.9531 29.1094 45.1205 29.1094C42.2879 29.1094 39.4152 29.4911 36.7634 30.2344C36.7634 30.2344 30.375 25.7746 27.5826 26.6384C25.7545 31.2388 26.8795 34.7946 27.2411 35.6786C25.1116 38.029 24.1071 39.8571 24.1071 43.5134C24.1071 56.2902 31.6004 57.375 39.0335 58.1987C38.0692 59.0625 37.2054 60.5491 36.904 62.6786C34.9955 63.5424 30.1138 65.029 27.2009 59.8862C25.3728 56.7121 22.0781 56.4509 22.0781 56.4509C18.8237 56.4107 21.8571 58.5 21.8571 58.5C24.0268 59.5045 25.5536 63.3616 25.5536 63.3616C27.5022 69.3281 36.8237 67.3192 36.8237 67.3192C36.8237 70.1116 36.8638 74.6518 36.8638 75.4754C36.8638 76.3393 36.2612 77.3839 34.5536 77.0826C21.2946 72.6429 12.0134 60.0268 12.0134 45.2812C12.0134 26.8393 26.1161 12.8371 44.558 12.8371C63 12.8371 77.9464 26.8393 77.9464 45.2812C77.9665 60.0268 68.9665 72.6629 55.7076 77.0826ZM36 64.808C35.6183 64.8884 35.2567 64.7277 35.2165 64.4665C35.1763 64.1652 35.4375 63.904 35.8192 63.8237C36.2009 63.7835 36.5625 63.9442 36.6027 64.2054C36.6629 64.4665 36.4018 64.7277 36 64.808ZM34.0915 64.6272C34.0915 64.8884 33.7902 65.1094 33.3884 65.1094C32.9464 65.1496 32.6451 64.9286 32.6451 64.6272C32.6451 64.3661 32.9464 64.1451 33.3482 64.1451C33.7299 64.1049 34.0915 64.3259 34.0915 64.6272ZM31.3393 64.4062C31.2589 64.6674 30.8571 64.7879 30.5156 64.6674C30.1339 64.5871 29.8728 64.2857 29.9531 64.0246C30.0335 63.7634 30.4353 63.6429 30.7768 63.7232C31.1786 63.8438 31.4397 64.1451 31.3393 64.4062ZM28.8683 63.3214C28.6875 63.5424 28.3058 63.5022 28.0045 63.2009C27.7031 62.9397 27.6228 62.558 27.8237 62.3772C28.0045 62.1562 28.3862 62.1964 28.6875 62.4978C28.9487 62.7589 29.0491 63.1607 28.8683 63.3214ZM27.0402 61.4933C26.8594 61.6138 26.5179 61.4933 26.2969 61.192C26.0759 60.8906 26.0759 60.5491 26.2969 60.4085C26.5179 60.2277 26.8594 60.3683 27.0402 60.6696C27.2612 60.971 27.2612 61.3326 27.0402 61.4933V61.4933ZM25.7344 59.5446C25.5536 59.7254 25.2522 59.625 25.0312 59.4241C24.8103 59.1629 24.7701 58.8616 24.9509 58.721C25.1317 58.5402 25.433 58.6406 25.654 58.8415C25.875 59.1027 25.9152 59.404 25.7344 59.5446ZM24.3884 58.058C24.308 58.2388 24.0469 58.279 23.8259 58.1384C23.5647 58.0179 23.4442 57.7969 23.5246 57.6161C23.6049 57.4955 23.8259 57.4353 24.0871 57.5357C24.3482 57.6763 24.4687 57.8973 24.3884 58.058Z" fill="white"/>
</svg>
