<svg width="45" height="90" viewBox="0 0 45 90" fill="none" xmlns="http://www.w3.org/2000/svg">
<path d="M36.8789 68.748L34.4004 73.0723L33.5918 87.1699C33.5918 88.7344 28.6172 90 22.5 90C16.3828 90 11.4082 88.7344 11.4082 87.1699L10.3887 73.2129L7.76953 68.748C15.0117 71.7891 29.918 71.6836 36.8789 68.748V68.748ZM2.42578 24.2227L4.81641 46.2832C5.85352 42.7676 8.47266 38.0215 11.8477 36.5801C12.9551 36.1055 14.0801 36.1055 15.1348 36.7383C16.0488 37.2656 16.8223 38.373 16.9102 38.8125C17.1211 39.9551 16.5586 40.4121 16.1191 40.4121C15.5918 40.4121 15.1875 39.6035 14.9238 39.1289C14.2031 37.8457 13.1133 37.793 11.9531 38.6367C10.7402 39.5156 9.68555 40.9922 8.94727 42.2754C8.05078 43.8223 7.29492 45.5273 6.83789 47.2324C6.57422 48.2168 6.32813 49.7988 6.73242 50.7305C6.9082 51.1172 7.17188 51.3633 7.59375 51.3633C8.47266 51.3633 9.75586 50.2031 10.3711 49.5879C11.1621 48.7969 12.1816 47.5664 12.5684 46.7754L13.4824 44.0508C13.9395 42.8555 15.2227 43.0664 15.2227 44.0508C15.2227 45.8437 14.5723 46.4414 13.4648 50.1504C12.4453 53.5781 12.1289 54.6855 12.1289 54.6855C12.0059 55.1777 11.5313 56.0039 11.0215 56.0039C10.8105 56.0039 10.6523 55.9336 10.5645 55.793C10.3887 55.5469 10.4063 54.8613 10.4238 54.6855C10.459 54.123 11.5313 50.7832 11.707 50.2559C11.3555 50.6426 10.9863 51.0293 10.582 51.416C9.63281 52.3125 8.10352 53.4902 6.80274 53.4902C6.20508 53.4902 5.81836 53.332 5.44922 53.0684L6.78516 67.0605C7.13672 67.9394 13.6758 70.0664 22.2891 70.0664C30.9199 70.0664 37.459 67.9219 37.793 67.0605L39.709 50.4316C38.707 51.3457 37.5469 52.4707 36.2637 53.0332C35.3145 53.4375 33.2051 53.7012 33.2051 52.0312C33.2051 51.1172 34.8047 49.4297 35.7363 48.2519C35.9824 47.9531 36.5625 47.2148 36.5625 46.8281C36.5625 46.3184 35.5078 46.4414 34.5059 47.2676C33.9434 47.7422 33.416 48.375 32.9766 48.9727C32.2207 50.0273 31.8164 50.9414 31.4824 51.6973C30.3926 54.1934 30.7617 53.209 29.8828 55.5644C29.0039 57.9023 29.1445 57.6387 28.9688 58.0254C28.8106 58.3594 28.582 58.6406 28.2656 58.8164C27.9316 58.9922 27.4746 58.9746 27.1934 58.7637C27.0352 58.6582 26.9648 58.4297 26.9648 58.1133C26.9648 57.9551 26.9824 57.7969 27.0176 57.6387C27.2813 56.5664 28.3887 54.457 29.6543 51.6094C29.9356 50.959 29.8301 51.1523 29.7949 51.2051C28.7051 52.2598 27.8789 52.7695 27.2637 53.0508C26.2441 53.5078 24.9785 53.5078 24.7149 52.3301C24.6973 52.2598 24.6973 52.1894 24.6797 52.1191C22.6055 53.7363 20.4082 54.1758 21.1641 50.6953C20.3555 52.1367 18.9492 53.3144 17.2266 53.3144C16.5059 53.3144 15.9785 53.0684 15.7148 52.418C15.3105 51.4512 15.9434 49.7988 16.5234 48.2344C16.8223 47.4434 17.2266 46.4941 17.7715 45.3867C18.0527 44.7891 18.5098 44.4375 19.1074 44.5957C19.2129 44.6309 19.3008 44.666 19.3887 44.7187C19.8457 45.0351 19.6699 45.5098 19.4414 45.9844C18.7734 47.3027 18.1934 48.2695 17.8066 49.6406C17.6484 50.2207 17.4551 51.2226 18.0703 51.2226C18.4922 51.2226 18.8965 51.082 19.2832 50.8008C20.0918 50.2031 20.7422 49.3066 21.2344 48.4277C21.5859 47.7949 22.0078 46.9687 22.2188 46.2656C22.3066 45.9668 22.4121 45.6855 22.5352 45.4219C22.7285 44.9824 22.9922 44.5254 23.4492 44.5254C23.6777 44.5254 23.8711 44.6133 24.0117 44.7891C24.3106 45.1758 24.2402 45.5801 24.082 46.0019C23.7305 46.9863 23.2559 47.8652 22.8691 48.9375C22.6406 49.5527 22.3945 50.3437 22.3945 50.9941C22.3945 51.5918 23.0449 51.4512 23.5898 51.2051C24.0117 51.0117 24.4336 50.7129 24.7852 50.4141C24.9961 49.5527 24.9434 49.7461 29.4258 38.4258C29.6543 37.8457 30.0762 37.5996 30.4981 37.5996C30.709 37.5996 30.8848 37.6699 31.0606 37.793C31.3594 38.0215 31.3594 38.5137 31.2363 38.8828C31.1133 39.2168 31.1309 39.1113 30.4453 40.7285C29.5313 42.8555 28.9336 44.3848 28.125 46.3359C27.791 47.1445 26.7715 49.6582 26.5957 50.2559C26.4902 50.6426 26.3672 51.2754 26.7715 51.2754C27.7207 51.2754 30.1641 48.9727 30.832 48.2871C30.8672 48.2344 30.9199 48.2168 30.9902 48.1816C31.0957 47.8477 31.2012 47.5312 31.2891 47.2148C31.5352 46.5469 31.7637 45.7734 32.2207 45.2285C32.3613 45.0527 32.5195 44.9473 32.6953 44.9473C33.1875 44.9473 33.4336 45.1582 33.4336 45.6504C33.4336 45.8437 33.3106 46.5469 33.2402 46.7402C33.4863 46.4766 33.75 46.2129 34.0313 45.9492C36.668 43.5059 38.5488 44.7539 38.5488 45.9844C38.5488 47.2852 36.9844 49.0957 36.1231 50.0976C35.8418 50.4316 35.2617 51.0469 35.2441 51.2226C35.2441 51.4512 35.4024 51.5391 35.6309 51.5391C35.9824 51.5391 36.7559 50.9238 37.0371 50.7129C37.916 50.0273 39.1113 48.9726 39.9551 48.2344L42.5567 24.1875C37.1953 27.1934 7.82227 27.2109 2.42578 24.2227V24.2227ZM42.8027 22.7285C42.8027 26.4199 2.16211 26.4199 2.16211 22.7285C2.16211 21.1816 11.2676 19.9336 22.4824 19.9336C24.0645 19.9336 25.6113 19.9512 27.1055 20.0039L29.3203 11.4434L40.0957 0.105467C40.3418 -0.140627 41.1152 0.0703108 41.8359 0.720701C42.5567 1.37109 42.9961 2.10937 42.7676 2.35547L42.75 2.37305L32.6777 13.0078L30.9199 20.1621C37.9336 20.6191 42.8027 21.5859 42.8027 22.7285ZM30.6035 23.5371C30.6035 23.3965 30.4453 23.2734 30.1641 23.168L30.1289 23.3086C30.1289 23.5371 29.25 23.7305 28.1777 23.7305C27.1055 23.7305 26.2266 23.5371 26.2266 23.3086C26.2266 23.291 26.2266 23.2734 26.2441 23.2559L26.2793 23.1328C25.9629 23.2383 25.752 23.3789 25.752 23.5371C25.752 23.9062 26.8418 24.1875 28.1602 24.1875C29.5137 24.2051 30.6035 23.9062 30.6035 23.5371V23.5371Z" fill="white"/>
</svg>
