<svg width="90" height="90" viewBox="0 0 90 90" fill="none" xmlns="http://www.w3.org/2000/svg">
<path d="M36.9375 31.2664C35.55 30.6909 34.05 30.4608 32.5125 30.4991C31.5375 30.4991 30.675 30.4991 29.9625 30.5375C29.2125 30.4991 28.6875 30.5375 28.425 30.5759V43.4655C28.95 43.5039 29.4375 43.5422 29.8875 43.5422H31.875C33.3375 43.5422 34.8 43.3121 36.1875 42.8517C37.3875 42.5065 38.4375 41.7776 39.2625 40.8185C40.05 39.8595 40.425 38.5552 40.425 36.8672C40.4625 35.678 40.1625 34.4888 39.5625 33.453C38.9372 32.457 38.0177 31.691 36.9375 31.2664ZM74.0625 0.116379H15.9375C7.125 0.116379 0 7.40517 0 16.4203V73.5759C0 82.591 7.125 89.8798 15.9375 89.8798H74.0625C82.875 89.8798 90 82.591 90 73.5759V16.4203C90 7.40517 82.875 0.116379 74.0625 0.116379ZM46.3463 44.8082C44.85 46.9565 42.75 48.5677 40.3125 49.4884C37.7625 50.4474 34.95 50.7927 31.875 50.7927C30.975 50.7927 30.375 50.7927 30 50.7543C29.625 50.7159 29.1 50.7159 28.3875 50.7159V63.0263C28.425 63.2949 28.2375 63.5289 27.975 63.5672H20.7C20.4 63.5672 20.25 63.41 20.25 63.0647V23.594C20.25 23.3254 20.3625 23.172 20.625 23.172C21.2625 23.172 21.8625 23.172 22.725 23.1336C23.625 23.0953 24.5625 23.0953 25.575 23.0569C26.5875 23.0185 27.675 23.0185 28.8375 22.9802C30 22.9418 31.125 22.9418 32.25 22.9418C35.325 22.9418 37.875 23.3254 39.975 24.131C41.85 24.7832 43.575 25.8573 45 27.2767C46.2 28.5043 47.1375 30.0004 47.7375 31.65C48.2962 33.2612 48.5962 34.9108 48.5962 36.6371C48.6 39.9362 47.85 42.6599 46.3463 44.8082V44.8082ZM72.9375 59.731C71.8875 61.2655 70.4212 62.4509 68.7375 63.1491C66.9 63.9509 64.65 64.369 61.9462 64.369C60.225 64.369 58.5337 64.2194 56.85 63.8741C55.5375 63.6401 54.225 63.222 53.025 62.6465C52.7625 62.4969 52.5713 62.2284 52.6088 61.9215V55.2465C52.6088 55.1352 52.65 54.978 52.7625 54.9012C52.8712 54.8245 52.9875 54.8629 53.1 54.9396C54.5625 55.8219 56.1 56.4396 57.75 56.8193C59.1712 57.203 60.6712 57.3948 62.175 57.3948C63.6 57.3948 64.6125 57.1991 65.2875 56.8539C65.8875 56.5853 66.3 55.9332 66.3 55.2427C66.3 54.7018 66 54.2069 65.4 53.7082C64.8 53.2133 63.5663 52.6379 61.7288 51.9013C59.8163 51.2108 58.0575 50.2901 56.4038 49.1431C55.2303 48.2833 54.2561 47.1701 53.55 45.8823C52.954 44.6686 52.6591 43.3234 52.6912 41.9656C52.6912 40.316 53.1413 38.7431 53.97 37.3237C54.9075 35.7893 56.2912 34.5617 57.9037 33.7944C59.6625 32.8776 61.875 32.4556 64.5375 32.4556C66.075 32.4556 67.65 32.5707 69.1875 32.8009C70.3125 32.9543 71.4 33.2612 72.4125 33.6832C72.5587 33.7215 72.7125 33.875 72.7875 34.0284C72.825 34.1819 72.8625 34.3353 72.8625 34.4888V40.7418C72.8625 40.8953 72.7875 41.0487 72.675 41.1254C72.3375 41.2021 72.15 41.2021 72 41.1254C70.875 40.5116 69.675 40.0896 68.4 39.8211C67.0125 39.5142 65.625 39.3224 64.2 39.3224C63.45 39.284 62.6625 39.3991 61.9462 39.5909C61.4625 39.706 61.0462 39.9746 60.7837 40.3582C60.5962 40.6651 60.4837 41.0487 60.4837 41.394C60.4837 41.7392 60.6337 42.0845 60.8625 42.3914C61.2 42.8134 61.6462 43.1586 62.1375 43.4271C62.9962 43.8875 63.9 44.3095 64.7962 44.6931C66.825 45.3836 68.775 46.3427 70.575 47.4935C71.8125 48.2953 72.825 49.3733 73.5337 50.6776C74.1337 51.8975 74.4338 53.2478 74.3963 54.625C74.4375 56.4319 73.9125 58.2311 72.9375 59.731V59.731Z" fill="white"/>
</svg>
